<svg width="44" height="31" viewBox="0 0 44 31" xmlns="http://www.w3.org/2000/svg" xmlns:sketch="http://www.bohemiancoding.com/sketch/ns"><path d="M.875 20.801c0-1.081.072-2.227.215-3.438.143-1.211.384-2.497.723-3.857.339-1.361.755-2.676 1.25-3.945.495-1.27 1.123-2.487 1.885-3.652s1.605-2.184 2.529-3.057c.924-.872 2.021-1.566 3.291-2.08s2.627-.771 4.072-.771c.977 0 1.859.098 2.646.293.788.195 1.488.501 2.1.918.612.417 1.087.973 1.426 1.67.339.697.508 1.52.508 2.471 0 1.133-.228 2.031-.684 2.695-.456.664-1.165.996-2.129.996-.911 0-1.667-.345-2.266-1.035.482-.247.908-.736 1.279-1.465.371-.729.557-1.471.557-2.227 0-.716-.195-1.302-.586-1.758-.391-.456-1.009-.684-1.855-.684-1.406 0-2.764.99-4.072 2.969-1.309 1.979-2.344 4.414-3.105 7.305-.762 2.891-1.143 5.697-1.143 8.418 0 .768.042 1.455.127 2.061.085.605.238 1.175.459 1.709.221.534.511.977.869 1.328.358.352.817.628 1.377.83.56.202 1.217.303 1.973.303 1.549 0 3.005-.355 4.365-1.064 1.361-.71 2.503-1.689 3.428-2.939l.918.41c-.508 1.276-1.224 2.412-2.148 3.408-.924.996-1.927 1.774-3.008 2.334s-2.152.983-3.213 1.27c-1.061.286-2.074.43-3.037.43-3.021 0-5.234-.758-6.641-2.275-1.406-1.517-2.109-4.04-2.109-7.568zm19.336-10.41c0-1.719.703-3.389 2.109-5.01 1.406-1.621 3.197-2.923 5.371-3.906 2.174-.983 4.362-1.475 6.563-1.475 1.589 0 2.998.215 4.229.645 1.23.43 2.217 1.016 2.959 1.758s1.302 1.576 1.68 2.5c.378.924.566 1.914.566 2.969 0 1.289-.27 2.565-.811 3.828-.54 1.263-1.289 2.409-2.246 3.437-.957 1.029-2.178 1.862-3.662 2.5-1.484.638-3.092.957-4.824.957h-.215l-2.441 11.406h-5.742l5.43-25.449 5.918-.781-2.832 13.359c.977-.078 1.908-.436 2.793-1.074.885-.638 1.628-1.426 2.227-2.363.599-.938 1.077-1.973 1.436-3.105.358-1.133.537-2.233.537-3.301 0-1.602-.41-2.91-1.23-3.926-.82-1.016-2.064-1.523-3.73-1.523-3.242 0-5.778.863-7.607 2.588-1.829 1.725-2.744 4.105-2.744 7.139 0 .599.042 1.094.127 1.484.085.391.176.68.273.869.098.189.146.309.146.361-1.432 0-2.503-.299-3.213-.898s-1.064-1.595-1.064-2.988z" sketch:type="MSShapeGroup"/></svg>